<svg width="40.000000" height="40.000000" viewBox="0 0 40 40" fill="none" xmlns="http://www.w3.org/2000/svg" xmlns:xlink="http://www.w3.org/1999/xlink">
	<desc>
			Created with Pixso.
	</desc>
	<defs/>
	<path id="Combined Shape" d="M8.37549 17.7637C7.74292 18.3737 6.88354 18.75 5.9375 18.75C3.99902 18.75 2.42188 17.1729 2.42188 15.2344C2.42188 13.2959 3.99902 11.7188 5.9375 11.7188C7.87598 11.7188 9.45312 13.2959 9.45312 15.2344C9.45312 15.3815 9.44312 15.5258 9.42529 15.668L12.8745 17.3926C13.5071 16.7825 14.3665 16.4062 15.3125 16.4062C15.8545 16.4062 16.3684 16.5298 16.8274 16.7499L21.5155 12.0618C21.2954 11.6028 21.1719 11.0889 21.1719 10.5469C21.1719 8.6084 22.749 7.03125 24.6875 7.03125C25.4075 7.03125 26.0769 7.24884 26.6348 7.62146L30.7078 4.56696C30.6033 4.23492 30.5469 3.88184 30.5469 3.51562C30.5469 1.57715 32.124 0 34.0625 0C36.001 0 37.5781 1.57715 37.5781 3.51562C37.5781 5.4541 36.001 7.03125 34.0625 7.03125C33.3425 7.03125 32.6731 6.81366 32.1152 6.44104L28.0422 9.49554C28.1467 9.82758 28.2031 10.1807 28.2031 10.5469C28.2031 12.4854 26.626 14.0625 24.6875 14.0625C24.1455 14.0625 23.6316 13.9389 23.1726 13.7189L18.4845 18.407C18.7046 18.866 18.8281 19.3799 18.8281 19.9219C18.8281 21.8604 17.251 23.4375 15.3125 23.4375C13.374 23.4375 11.7969 21.8604 11.7969 19.9219C11.7969 19.7748 11.8069 19.6304 11.8247 19.4882L8.37549 17.7637ZM34.0625 2.34375C34.7085 2.34375 35.2344 2.86957 35.2344 3.51562C35.2344 4.16168 34.7085 4.6875 34.0625 4.6875C33.4165 4.6875 32.8906 4.16168 32.8906 3.51562C32.8906 2.86957 33.4165 2.34375 34.0625 2.34375ZM25.8594 10.5469C25.8594 9.90082 25.3335 9.375 24.6875 9.375C24.0415 9.375 23.5156 9.90082 23.5156 10.5469C23.5156 11.1929 24.0415 11.7188 24.6875 11.7188C25.3335 11.7188 25.8594 11.1929 25.8594 10.5469ZM38.8281 37.6562L37.5781 37.6562L37.5781 12.8906C37.5781 12.2433 37.0535 11.7188 36.4062 11.7188L31.7188 11.7188C31.0715 11.7188 30.5469 12.2433 30.5469 12.8906L30.5469 37.6562L28.2031 37.6562L28.2031 19.9219C28.2031 19.2746 27.6785 18.75 27.0312 18.75L22.3438 18.75C21.6965 18.75 21.1719 19.2746 21.1719 19.9219L21.1719 37.6562L18.8281 37.6562L18.8281 29.2969C18.8281 28.6496 18.3035 28.125 17.6562 28.125L12.9688 28.125C12.3215 28.125 11.7969 28.6496 11.7969 29.2969L11.7969 37.6562L9.45312 37.6562L9.45312 24.6094C9.45312 23.9621 8.92847 23.4375 8.28125 23.4375L3.59375 23.4375C2.94653 23.4375 2.42188 23.9621 2.42188 24.6094L2.42188 37.6562L1.17188 37.6562C0.524658 37.6562 0 38.1808 0 38.8281C0 39.4754 0.524658 40 1.17188 40L38.8281 40C39.4753 40 40 39.4754 40 38.8281C40 38.1808 39.4753 37.6562 38.8281 37.6562ZM7.10938 15.2344C7.10938 14.5883 6.5835 14.0625 5.9375 14.0625C5.2915 14.0625 4.76562 14.5883 4.76562 15.2344C4.76562 15.8804 5.2915 16.4062 5.9375 16.4062C6.5835 16.4062 7.10938 15.8804 7.10938 15.2344ZM35.2344 37.6562L35.2344 14.0625L32.8906 14.0625L32.8906 37.6562L35.2344 37.6562ZM15.3125 18.75C15.9585 18.75 16.4844 19.2758 16.4844 19.9219C16.4844 20.5679 15.9585 21.0938 15.3125 21.0938C14.6665 21.0938 14.1406 20.5679 14.1406 19.9219C14.1406 19.2758 14.6665 18.75 15.3125 18.75ZM23.5156 21.0938L25.8594 21.0938L25.8594 37.6562L23.5156 37.6562L23.5156 21.0938ZM4.76562 25.7812L7.10938 25.7812L7.10938 37.6562L4.76562 37.6562L4.76562 25.7812ZM16.4844 37.6562L16.4844 30.4688L14.1406 30.4688L14.1406 37.6562L16.4844 37.6562Z" clip-rule="evenodd" fill="#2BD0D0" fill-opacity="1.000000" fill-rule="evenodd"/>
</svg>
