<svg width="120.042725" height="32.673950" viewBox="0 0 120.043 32.674" fill="none" xmlns="http://www.w3.org/2000/svg" xmlns:xlink="http://www.w3.org/1999/xlink">
	<desc>
			Created with Pixso.
	</desc>
	<defs/>
	<path id="Shortly" d="M16.184 7.75195C16.116 7.66138 15.8781 7.49133 15.47 7.24194C15.062 6.99268 14.552 6.73206 13.9399 6.45996C13.328 6.18799 12.6593 5.94995 11.934 5.74597C11.2086 5.54199 10.4833 5.43994 9.75806 5.43994C7.76331 5.43994 6.76599 6.10864 6.76599 7.44604C6.76599 7.854 6.87366 8.19397 7.08899 8.46594C7.30432 8.73804 7.6217 8.98169 8.04102 9.19702C8.46033 9.41235 8.9873 9.61072 9.62195 9.79199L11.0273 10.1849C11.2842 10.2554 11.5525 10.3285 11.832 10.4041C12.988 10.7213 14.0306 11.067 14.96 11.441C15.8893 11.8149 16.677 12.2797 17.323 12.835C17.969 13.3904 18.4677 14.0647 18.819 14.858C19.1703 15.6514 19.3459 16.6033 19.3459 17.714C19.3459 19.074 19.0909 20.2244 18.5811 21.165C18.071 22.1057 17.3967 22.865 16.558 23.443C15.7194 24.021 14.756 24.4403 13.668 24.701C12.58 24.9617 11.458 25.092 10.302 25.092C9.41797 25.092 8.51135 25.024 7.58203 24.8881C6.65271 24.752 5.74597 24.5537 4.86206 24.293C3.97803 24.0323 3.12231 23.7207 2.29504 23.358C1.46765 22.9954 0.702637 22.576 0 22.1L2.448 17.238C2.5387 17.3513 2.83337 17.5667 3.33203 17.884C3.83069 18.2013 4.44836 18.5187 5.18506 18.8361C5.92163 19.1533 6.74329 19.4366 7.65002 19.686C8.55664 19.9353 9.47461 20.0601 10.4041 20.0601C12.376 20.0601 13.3621 19.4594 13.3621 18.2581C13.3621 17.8047 13.2147 17.4307 12.92 17.136C12.6254 16.8413 12.2173 16.575 11.696 16.337C11.2616 16.1387 10.7603 15.9521 10.192 15.7775L8.49048 15.2823C8.17493 15.1898 7.84949 15.0938 7.51404 14.994C6.40332 14.6541 5.44006 14.2856 4.62402 13.889C3.80798 13.4923 3.13367 13.0333 2.60095 12.512C2.06836 11.9907 1.67163 11.39 1.41101 10.71C1.15039 10.03 1.02002 9.23669 1.02002 8.32996C1.02002 7.06067 1.25806 5.93872 1.73401 4.96399C2.20996 3.98938 2.85596 3.16772 3.672 2.49902C4.48804 1.83032 5.43433 1.32605 6.51099 0.985962C7.58765 0.645996 8.72668 0.475952 9.92798 0.475952C10.7667 0.475952 11.594 0.555298 12.41 0.713989C13.226 0.872681 14.0079 1.07666 14.756 1.32605C15.504 1.57532 16.201 1.85864 16.847 2.17603C17.493 2.49329 18.088 2.81067 18.632 3.12805L16.184 7.75195ZM39.6082 24.8199L34.1681 24.8199L34.1681 14.79C34.1681 13.634 33.9414 12.7841 33.4882 12.24C33.0348 11.696 32.4115 11.424 31.6182 11.424C31.3008 11.424 30.9551 11.4977 30.5811 11.645C30.2072 11.7924 29.8445 12.0077 29.4932 12.291C29.1417 12.5743 28.8187 12.9087 28.5242 13.2939C28.2295 13.6793 28.0028 14.11 27.8441 14.5861L27.8441 24.8199L22.4041 24.8199L22.4041 0L27.8441 0L27.8441 9.96204C28.5015 8.89661 29.3684 8.07495 30.4451 7.49695C31.5217 6.91895 32.7061 6.63 33.9982 6.63C35.1995 6.63 36.1685 6.83972 36.9052 7.25903C37.6417 7.67834 38.2085 8.21094 38.6051 8.85706C39.0018 9.50305 39.2681 10.2283 39.4042 11.033C39.5402 11.8376 39.6082 12.6254 39.6082 13.396L39.6082 24.8199ZM51.9482 25.16C50.4296 25.16 49.0752 24.9106 47.8853 24.412C46.6952 23.9133 45.6923 23.239 44.8762 22.389C44.0602 21.5389 43.4425 20.553 43.0232 19.431C42.6039 18.309 42.3942 17.136 42.3942 15.912C42.3942 14.688 42.6039 13.515 43.0232 12.3929C43.4425 11.271 44.0602 10.285 44.8762 9.43506C45.6923 8.58496 46.6952 7.90503 47.8853 7.39502C49.0752 6.88501 50.4296 6.63 51.9482 6.63C53.4669 6.63 54.8156 6.88501 55.9943 7.39502C57.1729 7.90503 58.1702 8.58496 58.9862 9.43506C59.8022 10.285 60.4255 11.271 60.8562 12.3929C61.2869 13.515 61.5022 14.688 61.5022 15.912C61.5022 17.136 61.2926 18.309 60.8732 19.431C60.4539 20.553 59.8362 21.5389 59.0203 22.389C58.2042 23.239 57.2012 23.9133 56.0112 24.412C54.8212 24.9106 53.4669 25.16 51.9482 25.16ZM49.0922 19.295C48.3442 18.4449 47.9702 17.3174 47.9702 15.912C47.9702 15.2321 48.0723 14.603 48.2762 14.025C48.4802 13.447 48.7579 12.954 49.1093 12.546C49.4606 12.1379 49.8799 11.8207 50.3672 11.594C50.8546 11.3673 51.3816 11.254 51.9482 11.254C53.0815 11.254 54.0222 11.679 54.7703 12.5291C55.5182 13.379 55.8922 14.5067 55.8922 15.912C55.8922 16.592 55.7902 17.2209 55.5862 17.799C55.3822 18.377 55.1046 18.87 54.7532 19.278C54.4019 19.686 53.9883 20.0033 53.5122 20.23C53.0363 20.4567 52.5149 20.5699 51.9482 20.5699C50.7922 20.5699 49.8402 20.145 49.0922 19.295ZM75.7463 11.6281C74.4316 11.6506 73.2417 11.866 72.1764 12.274C71.111 12.682 70.3403 13.2939 69.8644 14.11L69.8644 24.8199L64.4243 24.8199L64.4243 6.96997L69.4224 6.96997L69.4224 10.574C70.0343 9.37268 70.822 8.43201 71.7853 7.75195C72.7487 7.07202 73.7743 6.7207 74.8623 6.698L75.4064 6.698C75.5197 6.698 75.6329 6.70935 75.7463 6.73206L75.7463 11.6281ZM89.8204 23.868C89.0724 24.1853 88.2168 24.48 87.2534 24.752C86.2902 25.024 85.3212 25.16 84.3464 25.16C83.6664 25.16 83.0261 25.075 82.4254 24.905C81.8248 24.735 81.2977 24.463 80.8445 24.089C80.3911 23.715 80.0341 23.222 79.7734 22.61C79.5128 21.998 79.3824 21.2614 79.3824 20.4L79.3824 11.084L77.1045 11.084L77.1045 6.96997L79.3824 6.96997L79.3824 1.29199L84.8224 1.29199L84.8224 6.96997L88.4604 6.96997L88.4604 11.084L84.8224 11.084L84.8224 18.53C84.8224 19.1194 84.9697 19.5443 85.2644 19.8051C85.5591 20.0657 85.9331 20.196 86.3865 20.196C86.7944 20.196 87.2137 20.1281 87.6444 19.9919C88.0751 19.856 88.4491 19.7086 88.7665 19.55L89.8204 23.868ZM92.0966 0L97.5365 0L97.5365 18.462C97.5365 19.822 98.1145 20.502 99.2705 20.502C99.5426 20.502 99.8429 20.4623 100.172 20.3831C100.5 20.3037 100.801 20.1847 101.073 20.026L101.786 24.106C101.107 24.4233 100.325 24.6726 99.4406 24.854C98.5565 25.0353 97.7292 25.126 96.9586 25.126C95.3945 25.126 94.1932 24.718 93.3546 23.902C92.5159 23.0859 92.0966 21.9073 92.0966 20.366L92.0966 0ZM103.553 27.506C104.006 27.6647 104.431 27.778 104.828 27.8459C105.224 27.9139 105.581 27.948 105.899 27.948C106.556 27.948 107.066 27.7213 107.429 27.2679C107.791 26.8147 108.12 25.9987 108.415 24.8199L101.615 6.96997L107.225 6.96997L111.373 20.162L114.943 6.96997L120.043 6.96997L113.243 27.71C112.767 29.1833 111.917 30.379 110.693 31.297C109.469 32.215 108.018 32.674 106.341 32.674C105.887 32.674 105.428 32.6343 104.964 32.5551C104.499 32.4757 104.029 32.3453 103.553 32.1639L103.553 27.506Z" clip-rule="evenodd" fill="#34313D" fill-opacity="1.000000" fill-rule="evenodd"/>
</svg>
